<?xml version="1.0" encoding="UTF-8" standalone="no"?>
<!-- Generator: Adobe Illustrator 15.0.2, SVG Export Plug-In . SVG Version: 6.00 Build 0)  -->

<svg
   xmlns:dc="http://purl.org/dc/elements/1.1/"
   xmlns:cc="http://creativecommons.org/ns#"
   xmlns:rdf="http://www.w3.org/1999/02/22-rdf-syntax-ns#"
   xmlns:svg="http://www.w3.org/2000/svg"
   xmlns="http://www.w3.org/2000/svg"
   xmlns:sodipodi="http://sodipodi.sourceforge.net/DTD/sodipodi-0.dtd"
   xmlns:inkscape="http://www.inkscape.org/namespaces/inkscape"
   version="1.2"
   id="Layer_1"
   x="0px"
   y="0px"
   width="350"
   height="134.45302"
   viewBox="0 0 350 134.45302"
   overflow="inherit"
   xml:space="preserve"
   sodipodi:docname="loconomics-teal.svg"
   style="overflow:inherit"
   inkscape:version="0.92.3 (2405546, 2018-03-11)"><metadata
   id="metadata53"><rdf:RDF><cc:Work
       rdf:about=""><dc:format>image/svg+xml</dc:format><dc:type
         rdf:resource="http://purl.org/dc/dcmitype/StillImage" /><dc:title></dc:title></cc:Work></rdf:RDF></metadata><defs
   id="defs51" /><sodipodi:namedview
   pagecolor="#ffffff"
   bordercolor="#666666"
   borderopacity="1"
   objecttolerance="10"
   gridtolerance="10"
   guidetolerance="10"
   inkscape:pageopacity="0"
   inkscape:pageshadow="2"
   inkscape:window-width="1854"
   inkscape:window-height="1057"
   id="namedview49"
   showgrid="false"
   fit-margin-top="0"
   fit-margin-left="0"
   fit-margin-right="0"
   fit-margin-bottom="0"
   inkscape:zoom="2.3193102"
   inkscape:cx="174.57515"
   inkscape:cy="51.607517"
   inkscape:window-x="58"
   inkscape:window-y="-8"
   inkscape:window-maximized="1"
   inkscape:current-layer="Layer_1" />
<path
   d="M 14.040787,0 C 6.2913328,0 0,6.3015295 0,14.050984 v 76.719592 c 0,7.749454 6.3015295,14.050984 14.040787,14.050984 0,0 127.855793,0 131.108523,0 1.90677,2.32483 20.03641,24.48215 20.03641,24.48215 2.68172,3.27313 6.64822,5.14931 10.86963,5.14931 h 131.71013 c 7.74945,0 14.05098,-6.31173 14.05098,-14.05098 0,0 0,-10.90022 0,-15.58048 4.50692,0 14.13256,0 14.13256,0 7.74945,0 14.05098,-6.30153 14.05098,-14.050984 V 14.050984 C 350,6.3015295 343.69847,0 335.94902,0 H 14.040787 M 7.015295,90.770576 V 14.050984 c 0,-3.874728 3.150765,-7.0254924 7.025492,-7.0254924 H 335.94902 c 3.87472,0 7.02549,3.1507644 7.02549,7.0254924 v 76.719592 c 0,3.874727 -3.15077,7.025491 -7.02549,7.025491 h -17.6504 c -1.93737,0 -3.50765,1.570284 -3.50765,3.517843 v 19.08813 c 0,3.87472 -3.15077,7.02549 -7.02549,7.02549 H 176.05535 c -2.1107,0 -4.08885,-0.93809 -5.43481,-2.56956 L 149.53387,99.091042 c -0.67298,-0.815732 -1.66206,-1.294975 -2.72251,-1.294975 H 14.040787 c -3.864531,0 -7.025492,-3.150764 -7.025492,-7.025491 z"
   id="path2"
   inkscape:connector-curvature="0"
   style="fill:#007a7c;stroke-width:1.019665" />
<polyline
   points="44.59,83.5 25.35,83.5 25.35,22.89 33.45,22.89 33.45,76.15 44.59,76.15 44.59,83.5 "
   id="polyline4"
   style="fill:#007a7c"
   transform="matrix(1.019665,0,0,1.019665,-3.3445011,-3.0793882)" />
<path
   d="m 56.407866,82.062637 c -6.658412,0 -9.992717,-3.507648 -9.992717,-10.502549 V 30.844866 c 0,-7.056082 3.303715,-10.594319 9.900947,-10.594319 h 7.9126 c 6.597233,0 9.900947,3.538237 9.900947,10.594319 v 40.715222 c 0,7.005098 -3.324108,10.502549 -9.98252,10.502549 h -7.739257 m 1.97815,-7.494538 h 4.211216 c 2.182083,0 3.273125,-1.203204 3.273125,-3.61981 V 31.364895 c 0,-2.40641 -1.233795,-3.619811 -3.701384,-3.619811 h -3.86453 c -2.406409,0 -3.609614,1.213401 -3.609614,3.619811 v 39.583394 c -0.0102,2.416606 1.223598,3.61981 3.691187,3.61981 z"
   id="path6"
   inkscape:connector-curvature="0"
   style="fill:#007a7c;stroke-width:1.019665" />
<path
   d="m 106.14712,67.593591 v 3.9563 c 0,7.005098 -3.30371,10.502549 -9.900944,10.502549 h -5.332848 c -6.597232,0 -9.900946,-3.507647 -9.900946,-10.502549 V 30.763292 c 0,-6.994901 3.303714,-10.502549 9.900946,-10.502549 h 5.332848 c 6.597234,0 9.900944,3.507648 9.900944,10.502549 v 6.974509 h -8.26948 v -6.36271 c 0,-2.406409 -1.233794,-3.61981 -3.701384,-3.61981 h -1.631464 c -2.182083,0 -3.273124,1.213401 -3.273124,3.61981 v 39.573198 c 0,2.416606 1.091041,3.61981 3.273124,3.61981 h 2.06992 c 2.182083,0 3.262928,-1.203204 3.262928,-3.61981 v -3.354698 h 8.26948"
   id="path8"
   inkscape:connector-curvature="0"
   style="fill:#007a7c;stroke-width:1.019665" />
<path
   d="m 122.15586,82.062637 c -6.65841,0 -9.98252,-3.507648 -9.98252,-10.502549 V 30.844866 c 0,-7.056082 3.29352,-10.594319 9.90095,-10.594319 h 7.9126 c 6.59723,0 9.90095,3.538237 9.90095,10.594319 v 40.715222 c 0,7.005098 -3.33431,10.502549 -9.99272,10.502549 h -7.73926 m 1.97815,-7.494538 h 4.22142 c 2.18208,0 3.27312,-1.203204 3.27312,-3.61981 V 31.364895 c 0,-2.40641 -1.23379,-3.619811 -3.70138,-3.619811 h -3.87473 c -2.40641,0 -3.61981,1.213401 -3.61981,3.619811 v 39.583394 c 0,2.416606 1.24399,3.61981 3.70138,3.61981 z"
   id="path10"
   inkscape:connector-curvature="0"
   style="fill:#007a7c;stroke-width:1.019665" />
<polyline
   points="164.44,52.18 164.44,22.89 172.54,22.89 172.54,83.5 164.44,83.5 164.44,71.42 155.74,43.83   155.74,83.5 147.64,83.5 147.64,22.89 155.74,22.89 164.44,52.18 "
   id="polyline12"
   style="fill:#007a7c"
   transform="matrix(1.019665,0,0,1.019665,-3.3445011,-3.0793882)" />
<path
   d="m 189.88201,82.062637 c -6.65841,0 -9.97232,-3.507648 -9.97232,-10.502549 V 30.844866 c 0,-7.056082 3.28332,-10.594319 9.89075,-10.594319 h 7.92279 c 6.59724,0 9.90095,3.538237 9.90095,10.594319 v 40.715222 c 0,7.005098 -3.32411,10.502549 -9.98252,10.502549 h -7.75965 m 1.97815,-7.494538 h 4.21122 c 2.18208,0 3.27312,-1.203204 3.27312,-3.61981 V 31.364895 c 0,-2.40641 -1.23379,-3.619811 -3.70138,-3.619811 h -3.86453 c -2.40641,0 -3.60962,1.213401 -3.60962,3.619811 v 39.583394 c 0,2.416606 1.2236,3.61981 3.69119,3.61981 z"
   id="path14"
   inkscape:connector-curvature="0"
   style="fill:#007a7c;stroke-width:1.019665" />
<polyline
   points="230.52,58.51 238.03,22.89 246.98,22.89 246.98,83.5 238.87,83.5 239.72,43.83 233.64,72.52   227.39,72.52 221.32,43.83 222.17,83.5 214.06,83.5 214.06,22.89 223,22.89 230.52,58.51 "
   id="polyline16"
   style="fill:#007a7c"
   transform="matrix(1.019665,0,0,1.019665,-3.3445011,-3.0793882)" />
<rect
   x="256.23163"
   y="20.260742"
   width="8.2694826"
   height="61.801895"
   id="rect18"
   style="fill:#007a7c;stroke-width:1.019665" />
<path
   d="m 296.93664,67.593591 v 3.9563 c 0,7.005098 -3.30372,10.502549 -9.90095,10.502549 h -5.33285 c -6.59723,0 -9.90095,-3.507647 -9.90095,-10.502549 V 30.763292 c 0,-6.994901 3.30372,-10.502549 9.90095,-10.502549 h 5.33285 c 6.59723,0 9.90095,3.507648 9.90095,10.502549 v 6.974509 h -8.25929 v -6.36271 c 0,-2.406409 -1.2338,-3.61981 -3.71158,-3.61981 h -1.63147 c -2.18208,0 -3.27312,1.213401 -3.27312,3.61981 v 39.573198 c 0,2.416606 1.09104,3.61981 3.27312,3.61981 h 2.05973 c 2.17188,0 3.27312,-1.203204 3.27312,-3.61981 v -3.354698 h 8.26949"
   id="path20"
   inkscape:connector-curvature="0"
   style="fill:#007a7c;stroke-width:1.019665" />
<path
   d="m 319.23671,36.871086 v -5.424618 c 0,-2.467589 -1.2134,-3.701384 -3.61981,-3.701384 h -1.29498 c -2.35542,0 -3.52804,1.233795 -3.52804,3.701384 v 10.247633 c 0,1.142025 0.22433,1.927167 0.68318,2.324836 0.45885,0.407866 1.2032,0.917699 2.23306,1.549891 l 7.83103,4.221413 c 1.71304,0.978878 2.93664,1.73343 3.6606,2.284049 0.71376,0.540423 1.27458,1.203205 1.67225,1.97815 0.40786,0.774946 0.6118,2.25346 0.6118,4.435543 v 13.163875 c 0,6.943918 -3.32411,10.410779 -9.98252,10.410779 h -5.07793 c -6.59724,0 -9.90095,-3.782957 -9.90095,-11.369264 v -3.099782 h 8.25929 v 3.354698 c 0,2.416606 1.23379,3.61981 3.70138,3.61981 h 1.46832 c 2.18208,0 3.27312,-1.203204 3.27312,-3.61981 V 60.455936 c 0,-1.152221 -0.23452,-1.91697 -0.70357,-2.314639 -0.44865,-0.407866 -1.2032,-0.917699 -2.23306,-1.549891 l -7.83103,-4.394756 c -1.72323,-0.907502 -2.97742,-1.692644 -3.74217,-2.314639 -0.77495,-0.632193 -1.33576,-1.447925 -1.68245,-2.457393 -0.34668,-0.999272 -0.50983,-2.304443 -0.50983,-3.915513 V 30.865259 c 0,-7.056082 3.30371,-10.594319 9.90095,-10.594319 h 5.1697 c 6.59723,0 9.90094,3.538237 9.90094,10.594319 v 6.02622 h -8.25928"
   id="path22"
   inkscape:connector-curvature="0"
   style="fill:#007a7c;stroke-width:1.019665" />
<g
   id="g46"
   transform="matrix(1.019665,0,0,1.019665,-3.3445011,-3.0793882)">
	<path
   d="m 187.79,117.28 v 2.24 c 0,2.77 -1.3,4.15 -3.91,4.15 h -2.11 c -2.61,0 -3.91,-1.38 -3.91,-4.15 V 103.4 c 0,-2.77 1.3,-4.15 3.91,-4.15 h 2.11 c 2.61,0 3.91,1.38 3.91,4.15 v 3.43 h -3.26 v -3.43 c 0,-0.95 -0.49,-1.43 -1.46,-1.43 h -0.65 c -0.86,0 -1.29,0.48 -1.29,1.43 v 16.12 c 0,0.95 0.43,1.43 1.29,1.43 h 0.82 c 0.86,0 1.29,-0.48 1.29,-1.43 v -2.24 z"
   id="path24"
   inkscape:connector-curvature="0"
   style="fill:#007a7c" />
	<path
   d="m 194.29,123.67 c -2.63,0 -3.94,-1.38 -3.94,-4.15 v -16.08 c 0,-2.79 1.3,-4.18 3.91,-4.18 h 2.79 c 2.61,0 3.91,1.39 3.91,4.18 v 16.08 c 0,2.77 -1.31,4.15 -3.94,4.15 z m 2.27,-2.72 c 0.75,0 1.12,-0.42 1.12,-1.26 v -16.46 c 0,-0.84 -0.43,-1.26 -1.29,-1.26 h -1.53 c -0.84,0 -1.26,0.42 -1.26,1.26 v 16.46 c 0,0.84 0.43,1.26 1.29,1.26 z"
   id="path26"
   inkscape:connector-curvature="0"
   style="fill:#007a7c" />
	<path
   d="m 207.95,123.67 c -2.63,0 -3.94,-1.38 -3.94,-4.15 v -16.08 c 0,-2.79 1.3,-4.18 3.91,-4.18 h 2.79 c 2.61,0 3.91,1.39 3.91,4.18 v 16.08 c 0,2.77 -1.31,4.15 -3.94,4.15 z m 2.28,-2.72 c 0.75,0 1.12,-0.42 1.12,-1.26 v -16.46 c 0,-0.84 -0.43,-1.26 -1.29,-1.26 h -1.53 c -0.84,0 -1.26,0.42 -1.26,1.26 v 16.46 c 0,0.84 0.43,1.26 1.29,1.26 z"
   id="path28"
   inkscape:connector-curvature="0"
   style="fill:#007a7c" />
	<path
   d="m 220.94,123.67 h -3.26 V 99.25 h 6.15 c 2.63,0 3.94,1.39 3.94,4.18 v 5.58 c 0,1.7 -0.53,3.02 -1.6,3.96 -1.06,0.94 -2.63,1.41 -4.69,1.41 h -0.54 z m 0,-12 h 0.54 c 1.02,0 1.78,-0.19 2.28,-0.58 0.5,-0.38 0.75,-1.01 0.75,-1.87 v -6.15 c 0.05,-0.73 -0.34,-1.09 -1.16,-1.09 h -2.41 z"
   id="path30"
   inkscape:connector-curvature="0"
   style="fill:#007a7c" />
	<path
   d="M 230.32,123.67 V 99.25 h 7.21 v 2.72 h -3.94 v 8.33 h 3.94 v 2.72 h -3.94 v 7.92 h 3.94 v 2.72 h -7.21 z"
   id="path32"
   inkscape:connector-curvature="0"
   style="fill:#007a7c" />
	<path
   d="m 247.46,123.67 -2.14,-9.86 h -1.97 v 9.86 h -3.26 V 99.25 h 6.39 c 2.49,0 3.74,1.39 3.74,4.18 v 6.02 c 0,2.13 -0.65,3.48 -1.94,4.05 l 2.28,10.17 z m -4.11,-12.65 h 2.14 c 0.97,0 1.46,-0.59 1.46,-1.77 v -5.27 c 0,-1.18 -0.49,-1.77 -1.46,-1.77 h -2.14 z"
   id="path34"
   inkscape:connector-curvature="0"
   style="fill:#007a7c" />
	<path
   d="m 256.2,123.67 h -3.26 v -20.23 c 0,-2.79 1.3,-4.18 3.91,-4.18 h 2.45 c 2.61,0 3.91,1.39 3.91,4.18 v 20.23 h -3.26 v -8.94 h -3.74 v 8.94 z m 3.74,-11.9 v -8.13 c 0,-0.95 -0.48,-1.43 -1.43,-1.43 h -0.88 c -0.95,0 -1.43,0.48 -1.43,1.43 v 8.13 z"
   id="path36"
   inkscape:connector-curvature="0"
   style="fill:#007a7c" />
	<path
   d="m 271.29,101.97 v 21.69 h -3.26 v -21.69 h -3.13 v -2.72 h 9.52 v 2.72 z"
   id="path38"
   inkscape:connector-curvature="0"
   style="fill:#007a7c" />
	<path
   d="M 276.29,123.67 V 99.25 h 3.26 v 24.41 h -3.26 z"
   id="path40"
   inkscape:connector-curvature="0"
   style="fill:#007a7c" />
	<path
   d="m 293.19,99.25 -3.94,24.41 h -3.88 l -3.95,-24.41 h 3.23 l 2.65,18.63 2.65,-18.63 z"
   id="path42"
   inkscape:connector-curvature="0"
   style="fill:#007a7c" />
	<path
   d="M 294.72,123.67 V 99.25 h 7.21 v 2.72 h -3.94 v 8.33 h 3.94 v 2.72 h -3.94 v 7.92 h 3.94 v 2.72 h -7.21 z"
   id="path44"
   inkscape:connector-curvature="0"
   style="fill:#007a7c" />
</g>
</svg>